<svg xmlns="http://www.w3.org/2000/svg" xmlns:xlink="http://www.w3.org/1999/xlink" version="1.1" width="256" height="256" viewBox="0 0 256 256" xml:space="preserve">

<defs>
</defs>
<g style="stroke: none; stroke-width: 0; stroke-dasharray: none; stroke-linecap: butt; stroke-linejoin: miter; stroke-miterlimit: 10; fill: none; fill-rule: nonzero; opacity: 1;" transform="translate(1.4065934065934016 1.4065934065934016) scale(2.81 2.81)" >
	<path d="M 45.541 87.369 c -0.225 0 -0.441 -0.007 -0.624 -0.014 c -0.151 0.01 -0.306 0.014 -0.46 0.014 c -5.759 0 -9.619 -2.731 -12.721 -4.926 c -2.062 -1.457 -3.836 -2.709 -5.774 -3.032 c -1.066 -0.176 -2.125 -0.266 -3.145 -0.266 c -1.835 0 -3.271 0.28 -4.423 0.506 c -0.835 0.162 -1.546 0.301 -2.221 0.301 c -2.331 0 -3.079 -1.693 -3.292 -2.421 c -0.22 -0.749 -0.372 -1.443 -0.519 -2.115 c -0.066 -0.3 -0.188 -0.857 -0.302 -1.261 c -9.145 -1.509 -11.099 -3.731 -11.765 -5.29 c -0.166 -0.381 -0.265 -0.795 -0.291 -1.222 c -0.087 -1.563 1.003 -2.921 2.536 -3.171 c 4.621 -0.761 8.755 -3.232 12.284 -7.345 c 2.779 -3.236 4.132 -6.295 4.277 -6.633 l 0.072 -0.155 c 0.261 -0.529 0.666 -1.53 0.388 -2.184 c -0.469 -1.105 -2.86 -1.864 -4.146 -2.272 c -0.499 -0.158 -0.972 -0.31 -1.35 -0.459 c -5.081 -2.007 -5.393 -4.659 -5.127 -6.061 c 0.46 -2.419 3.188 -3.917 5.451 -3.917 c 0.698 0 1.338 0.134 1.904 0.4 c 1.343 0.629 2.558 0.962 3.511 0.962 c 0.164 0 0.308 -0.009 0.434 -0.025 c -0.024 -0.394 -0.048 -0.788 -0.074 -1.182 c -0.383 -6.091 -0.858 -13.651 1.207 -18.279 C 27.446 3.705 40.316 2.647 44.116 2.647 l 1.709 -0.016 c 3.829 0 16.725 1.059 22.801 14.685 c 2.065 4.632 1.589 12.201 1.206 18.283 l -0.018 0.286 c -0.02 0.305 -0.038 0.604 -0.057 0.897 c 0.063 0.008 0.131 0.014 0.203 0.018 c 0.907 -0.05 2.031 -0.379 3.258 -0.953 c 0.801 -0.377 1.635 -0.456 2.192 -0.456 c 0.804 0 1.6 0.155 2.302 0.448 c 2.007 0.709 3.376 2.352 3.411 4.154 c 0.041 2.228 -1.707 4.055 -5.196 5.433 c -0.371 0.147 -0.846 0.3 -1.348 0.459 c -1.285 0.408 -3.676 1.167 -4.145 2.271 c -0.264 0.62 0.068 1.535 0.394 2.193 l 0.047 0.103 c 0.231 0.54 5.315 12.163 16.584 14.02 c 1.532 0.256 2.62 1.614 2.534 3.16 c -0.026 0.439 -0.127 0.857 -0.3 1.253 c -0.657 1.538 -2.607 3.754 -11.759 5.265 c -0.112 0.398 -0.231 0.945 -0.294 1.23 c -0.143 0.657 -0.302 1.362 -0.526 2.123 c -0.436 1.491 -1.628 2.385 -3.188 2.385 h -0.101 c -0.57 0 -1.294 -0.088 -2.212 -0.268 c -1.458 -0.284 -2.771 -0.474 -4.433 -0.474 c -1.016 0 -2.075 0.09 -3.148 0.268 c -1.941 0.323 -3.713 1.576 -5.765 3.027 C 55.164 84.637 51.299 87.369 45.541 87.369 z M 44.847 83.347 l 0.14 0.008 c 0.15 0.007 0.348 0.015 0.554 0.015 c 4.486 0 7.502 -2.133 10.419 -4.194 c 2.247 -1.59 4.572 -3.233 7.419 -3.708 c 1.292 -0.214 2.57 -0.321 3.804 -0.321 c 2.1 0 3.74 0.264 5.2 0.548 c 0.467 0.092 0.803 0.141 1.039 0.166 c 0.12 -0.458 0.22 -0.905 0.313 -1.332 c 0.398 -1.829 0.851 -3.902 2.851 -4.214 c 4.928 -0.761 7.312 -1.648 8.447 -2.264 C 72.876 65.007 67.454 52.619 67.22 52.068 c -0.987 -1.999 -1.151 -3.858 -0.465 -5.477 c 1.188 -2.796 4.585 -3.875 6.615 -4.52 c 0.406 -0.129 0.789 -0.249 1.089 -0.367 c 1.98 -0.782 2.514 -1.428 2.638 -1.626 c -0.088 -0.114 -0.323 -0.332 -0.797 -0.5 l -0.125 -0.048 c -0.401 -0.166 -1.097 -0.138 -1.257 -0.062 c -1.77 0.829 -3.411 1.276 -4.882 1.333 l -0.077 0.003 l -0.077 -0.003 c -2.034 -0.08 -3.164 -0.929 -3.556 -1.291 l -0.69 -0.637 l 0.05 -0.939 c 0.039 -0.737 0.087 -1.498 0.138 -2.302 l 0.018 -0.278 c 0.355 -5.65 0.798 -12.675 -0.867 -16.409 C 59.878 7.519 49.045 6.631 45.846 6.631 l -1.713 0.016 c -3.208 0 -14.015 0.887 -19.108 12.305 c -1.664 3.73 -1.223 10.746 -0.869 16.383 c 0.057 0.868 0.108 1.731 0.157 2.595 l 0.052 0.941 l -0.693 0.64 c -0.423 0.39 -1.646 1.297 -3.867 1.297 c -1.558 0 -3.311 -0.451 -5.209 -1.34 l 0 0 c 0 0 -0.062 -0.021 -0.206 -0.021 c -0.644 0 -1.313 0.389 -1.493 0.63 c 0.179 0.291 0.96 0.964 2.64 1.627 c 0.305 0.121 0.685 0.239 1.085 0.366 c 2.034 0.646 5.433 1.724 6.62 4.522 c 0.687 1.618 0.523 3.478 -0.487 5.526 c -0.256 0.6 -1.796 4.004 -4.897 7.614 c -3.71 4.323 -8.04 7.116 -12.892 8.319 c 1.137 0.619 3.52 1.508 8.444 2.268 c 1.998 0.309 2.453 2.39 2.854 4.226 c 0.1 0.455 0.199 0.912 0.317 1.365 c 0.308 -0.042 0.675 -0.114 1.035 -0.184 c 1.261 -0.247 2.977 -0.582 5.199 -0.582 c 1.238 0 2.517 0.107 3.8 0.319 c 2.843 0.474 5.169 2.116 7.419 3.705 c 2.923 2.068 5.935 4.199 10.422 4.199 c 0.084 0 0.168 -0.002 0.25 -0.01 L 44.847 83.347 z M 3.191 68.419 c -0.001 0 -0.002 0.001 -0.003 0.001 C 3.189 68.42 3.19 68.419 3.191 68.419 z" style="stroke: none; stroke-width: 1; stroke-dasharray: none; stroke-linecap: butt; stroke-linejoin: miter; stroke-miterlimit: 10; fill: rgb(0,0,0); fill-rule: nonzero; opacity: 1;" transform=" matrix(1 0 0 1 0 0) " stroke-linecap="round" />
</g>
</svg>